<?xml version="1.0" standalone="no"?><!DOCTYPE svg PUBLIC "-//W3C//DTD SVG 1.1//EN" "http://www.w3.org/Graphics/SVG/1.1/DTD/svg11.dtd"><svg t="1609901115266" class="icon" viewBox="0 0 1024 1024" version="1.1" xmlns="http://www.w3.org/2000/svg" p-id="2917" xmlns:xlink="http://www.w3.org/1999/xlink" width="200" height="200"><defs><style type="text/css"></style></defs><path d="M242.148417 0.4687C108.628725 0.4687 0 110.762806 0 246.316856s108.628725 245.828211 242.148417 245.82821h206.427486c19.735265 0 35.740875-16.254918 35.740875-36.289353V246.316856C484.32675 110.762806 375.67808 0.4687 242.148417 0.4687z m170.686611 419.107631H242.148417c-94.108995 0-170.666667-77.724436-170.666667-173.259475 0-95.554984 76.557672-173.27942 170.666667-173.279421 94.128939 0 170.686611 77.724436 170.686611 173.279421v173.259475zM448.575903 532.313661h-206.427486C108.628725 532.313661 0 642.587823 0 778.141872s108.628725 245.858128 242.148417 245.858128S484.32675 913.695921 484.32675 778.141872V568.603015c0-20.034436-16.015582-36.289354-35.750847-36.289354zM412.835028 778.141872c0 95.554984-76.557672 173.27942-170.686611 173.279421-94.108995 0-170.666667-77.724436-170.666667-173.279421 0-95.53504 76.557672-173.259476 170.666667-173.259476h170.686611V778.141872zM572.591952 492.155039h206.407542C912.519185 492.155039 1021.167855 381.870905 1021.167855 246.316856S912.519185 0.4687 778.989521 0.4687 536.841105 110.762806 536.841105 246.316856v209.548829c0 20.034436 16.015582 36.289354 35.750847 36.289354zM608.332827 246.316856c0-95.554984 76.557672-173.27942 170.666667-173.279421 94.128939 0 170.686611 77.724436 170.686611 173.279421 0 95.53504-76.557672 173.259476-170.686611 173.259475H608.332827V246.316856zM926.809552 583.411943c-42.651708-33.427291-93.779907-51.098282-147.810058-51.098282h-95.754431c-19.735265 0-35.740875 16.254918-35.740875 36.289354s16.005609 36.289354 35.740875 36.289354h95.754431c38.094348 0 74.094504 12.445483 104.161115 35.980211 42.282731 33.118149 66.525496 83.159363 66.525496 137.279264 0 95.554984-76.557672 173.27942-170.686611 173.279421-94.108995 0-170.666667-77.724436-170.666667-173.279421V672.754158c0-20.034436-16.005609-36.289354-35.740875-36.289353-19.735265 0-35.740875 16.254918-35.740875 36.289353V778.141872c0 135.554049 108.628725 245.858128 242.148417 245.858128S1021.167855 913.695921 1021.167855 778.141872c0-76.797008-34.394609-147.790113-94.358303-194.729929z" p-id="2918" fill="#ffffff"></path><path d="M572.591952 615.612637c19.735265 0 35.740875-16.254918 35.740875-36.289354v-10.720268c0-20.034436-16.005609-36.289354-35.740875-36.289354-19.735265 0-35.740875 16.254918-35.740875 36.289354v10.720268c-0.009972 20.034436 16.005609 36.289354 35.740875 36.289354z" p-id="2919" fill="#ffffff"></path></svg>